# xmcd
#
# Track frame offsets: 
#        150
#        2964
#        23483
#        37556
#        57591
#        76282
#        98664
#        117436
#        133918
#        152982
#        170904
#        182516
#
# Disc length: 2619 seconds
#
# Revision: 0
# Processed by: cddbd v1.5.2PL0 Copyright (c) Steve Scherf et al.
# Submitted via: ExactAudioCopyFreeDBPlugin 1.0
#
DISCID=940a390c
DTITLE=Roy Lønhøiden - Du Spør Meg Om Sannhet
DYEAR=2015
DGENRE=Country
TTITLE0=Tejas Moon
TTITLE1=Sjumilssko
TTITLE2=Toreværtid
TTITLE3=På Gjengrodde Jorder
TTITLE4=I Øyet Av Stormen
TTITLE5=Form For Ditt Forlis
TTITLE6=Sånn Ble Dagene Korte
TTITLE7=Tida Flyr Så Fort
TTITLE8=Pilegrim
TTITLE9=Fullmåne
TTITLE10=Du Må Forsøke
TTITLE11=Det Finnes En
EXTD=
EXTT0=
EXTT1=
EXTT2=
EXTT3=
EXTT4=
EXTT5=
EXTT6=
EXTT7=
EXTT8=
EXTT9=
EXTT10=
EXTT11=
PLAYORDER=
